<svg width="36" height="37" viewBox="0 0 36 37" fill="none" xmlns="http://www.w3.org/2000/svg">
<path fill-rule="evenodd" clip-rule="evenodd" d="M2.9967 9.14239C2.9967 7.55101 3.62888 6.02481 4.75415 4.89954C5.87942 3.77426 7.40562 3.14209 8.997 3.14209H26.9979C28.5893 3.14209 30.1155 3.77426 31.2407 4.89954C32.366 6.02481 32.9982 7.55101 32.9982 9.14239V27.1433C32.9982 28.7347 32.366 30.2609 31.2407 31.3861C30.1155 32.5114 28.5893 33.1436 26.9979 33.1436H8.997C7.40562 33.1436 5.87942 32.5114 4.75415 31.3861C3.62888 30.2609 2.9967 28.7347 2.9967 27.1433V9.14239ZM8.997 6.14224C8.20131 6.14224 7.43821 6.45832 6.87558 7.02096C6.31294 7.5836 5.99685 8.3467 5.99685 9.14239V27.1433C5.99685 27.939 6.31294 28.7021 6.87558 29.2647C7.43821 29.8273 8.20131 30.1434 8.997 30.1434H26.9979C27.7936 30.1434 28.5567 29.8273 29.1193 29.2647C29.682 28.7021 29.998 27.939 29.998 27.1433V9.14239C29.998 8.3467 29.682 7.5836 29.1193 7.02096C28.5567 6.45832 27.7936 6.14224 26.9979 6.14224H8.997ZM17.9974 13.6426C16.8039 13.6426 15.6593 14.1167 14.8153 14.9607C13.9714 15.8047 13.4972 16.9493 13.4972 18.1428C13.4972 19.3364 13.9714 20.481 14.8153 21.325C15.6593 22.1689 16.8039 22.6431 17.9974 22.6431C19.191 22.6431 20.3356 22.1689 21.1796 21.325C22.0235 20.481 22.4977 19.3364 22.4977 18.1428C22.4977 16.9493 22.0235 15.8047 21.1796 14.9607C20.3356 14.1167 19.191 13.6426 17.9974 13.6426ZM10.4971 18.1428C10.4971 16.1536 11.2873 14.2459 12.6939 12.8393C14.1005 11.4327 16.0082 10.6425 17.9974 10.6425C19.9867 10.6425 21.8944 11.4327 23.301 12.8393C24.7076 14.2459 25.4978 16.1536 25.4978 18.1428C25.4978 20.1321 24.7076 22.0398 23.301 23.4464C21.8944 24.853 19.9867 25.6432 17.9974 25.6432C16.0082 25.6432 14.1005 24.853 12.6939 23.4464C11.2873 22.0398 10.4971 20.1321 10.4971 18.1428ZM26.2479 12.1425C26.8446 12.1425 27.4169 11.9055 27.8389 11.4835C28.2609 11.0615 28.498 10.4892 28.498 9.89242C28.498 9.29566 28.2609 8.72333 27.8389 8.30136C27.4169 7.87938 26.8446 7.64231 26.2479 7.64231C25.6511 7.64231 25.0788 7.87938 24.6568 8.30136C24.2348 8.72333 23.9977 9.29566 23.9977 9.89242C23.9977 10.4892 24.2348 11.0615 24.6568 11.4835C25.0788 11.9055 25.6511 12.1425 26.2479 12.1425Z" fill="white"/>
</svg>
